<mxfile host="app.diagrams.net" modified="2022-05-15T03:11:23.249Z" agent="5.0 (Windows NT 10.0; Win64; x64) AppleWebKit/537.36 (KHTML, like Gecko) Chrome/101.0.4951.64 Safari/537.36" etag="_hXJxQlvc2cSIEj99cPo" version="18.0.4" type="github">
  <diagram id="xfVocDyf2G8-BV-rD07n" name="Page-1">
    <mxGraphModel dx="1422" dy="762" grid="1" gridSize="10" guides="1" tooltips="1" connect="1" arrows="1" fold="1" page="1" pageScale="1" pageWidth="850" pageHeight="1100" math="0" shadow="0">
      <root>
        <mxCell id="0" />
        <mxCell id="1" parent="0" />
        <mxCell id="ZL0XpYFh-_qeLpsON0w1-1" value="" style="rounded=1;whiteSpace=wrap;html=1;" parent="1" vertex="1">
          <mxGeometry x="350" y="340" width="120" height="60" as="geometry" />
        </mxCell>
        <mxCell id="ZL0XpYFh-_qeLpsON0w1-2" value="" style="ellipse;whiteSpace=wrap;html=1;" parent="1" vertex="1">
          <mxGeometry x="350" y="400" width="120" height="50" as="geometry" />
        </mxCell>
        <mxCell id="ZL0XpYFh-_qeLpsON0w1-3" value="" style="rounded=1;whiteSpace=wrap;html=1;" parent="1" vertex="1">
          <mxGeometry x="350" y="450" width="120" height="60" as="geometry" />
        </mxCell>
        <mxCell id="ZL0XpYFh-_qeLpsON0w1-4" value="First step create foundation with two breads" style="text;html=1;strokeColor=none;fillColor=none;align=center;verticalAlign=middle;whiteSpace=wrap;rounded=0;" parent="1" vertex="1">
          <mxGeometry x="490" y="300" width="100" height="80" as="geometry" />
        </mxCell>
        <mxCell id="ZL0XpYFh-_qeLpsON0w1-5" value="next step the meat is chosen" style="text;html=1;strokeColor=none;fillColor=none;align=center;verticalAlign=middle;whiteSpace=wrap;rounded=0;" parent="1" vertex="1">
          <mxGeometry x="500" y="400" width="90" height="30" as="geometry" />
        </mxCell>
        <mxCell id="ZL0XpYFh-_qeLpsON0w1-6" value="Last step, place the second piece of bread on sandwihc" style="text;html=1;strokeColor=none;fillColor=none;align=center;verticalAlign=middle;whiteSpace=wrap;rounded=0;" parent="1" vertex="1">
          <mxGeometry x="500" y="490" width="60" height="30" as="geometry" />
        </mxCell>
      </root>
    </mxGraphModel>
  </diagram>
</mxfile>
